<svg width="175px" height="80px" xmlns="http://www.w3.org/2000/svg" viewBox="41.168920898437506 35 417.662158203125 80" style="background: rgba(0, 0, 0, 0);" preserveAspectRatio="xMidYMid"><defs><filter id="editing-extrude-glow"><feFlood flood-color="#333333" result="flood-1"></feFlood><feMorphology operator="erode" radius="1" in="SourceAlpha" result="erode"></feMorphology><feComposite operator="in" in="flood-1" in2="erode" result="comp1"></feComposite><feConvolveMatrix order="3,3" divisor="1" in="comp1" result="convolve" kernelMatrix="0 0 0 1 1 1 0 0 0"></feConvolveMatrix><feOffset dx="-3" dy="0" in="convolve" result="extrude"></feOffset><feComposite operator="in" in="flood-1" in2="extrude" result="comp-extrude"></feComposite><feFlood flood-color="#000000" result="flood-2"></feFlood><feComposite operator="in" in="flood-2" in2="SourceAlpha" result="comp2"></feComposite><feMorphology operator="dilate" radius="1" in="comp2" result="dilate"></feMorphology><feOffset dx="-4.5" dy="0" in="dilate" result="offset"></feOffset><feGaussianBlur in="offset" stdDeviation="5.8" result="blur"></feGaussianBlur><feComponentTransfer in="blur" result="shadow"><feFuncA type="linear" slope="0.8" intercept="-0.2"></feFuncA></feComponentTransfer><feMerge><feMergeNode in="shadow"></feMergeNode><feMergeNode in="comp-extrude"></feMergeNode><feMergeNode in="SourceGraphic"></feMergeNode></feMerge></filter></defs><g filter="url(#editing-extrude-glow)"><g transform="translate(103.85278624296188, 92.69000244140625)"><path d="M8.44 0L0.30 0L4.94-24.97L4.94-24.97Q8.70-25.38 14.19-25.38L14.19-25.38L14.19-25.38Q19.68-25.38 22.23-23.79L22.23-23.79L22.23-23.79Q24.78-22.19 24.78-18.98L24.78-18.98L24.78-18.98Q24.78-15.77 23.12-13.76L23.12-13.76L23.12-13.76Q21.47-11.74 18.62-11.10L18.62-11.10L18.62-11.10Q19.27-7.94 20.75-5.40L20.75-5.40L20.75-5.40Q22.12-3.00 23.71-2.24L23.71-2.24L23.71-2.24Q23.14-0.65 21.98 0.06L21.98 0.06L21.98 0.06Q20.82 0.76 19.17 0.76L19.17 0.76L19.17 0.76Q17.52 0.76 16.23-0.21L16.23-0.21L16.23-0.21Q14.93-1.18 13.91-2.96L13.91-2.96L13.91-2.96Q11.74-6.84 11.51-12.96L11.51-12.96L11.78-12.96L11.78-12.96Q14.59-13.03 16.00-14.50L16.00-14.50L16.00-14.50Q17.40-15.96 17.40-19.04L17.40-19.04L17.40-19.04Q17.40-22.88 14.17-23.03L14.17-23.03L13.34-23.03L13.34-23.03Q13.00-23.03 12.81-22.99L12.81-22.99L8.44 0ZM41.91-6.42L41.91-6.42L41.91-6.42Q42.86-5.78 42.86-4.35L42.86-4.35L42.86-4.35Q42.86-2.93 42.14-2.01L42.14-2.01L42.14-2.01Q41.42-1.10 40.24-0.49L40.24-0.49L40.24-0.49Q37.81 0.76 35.19 0.76L35.19 0.76L35.19 0.76Q32.57 0.76 31.03 0.19L31.03 0.19L31.03 0.19Q29.49-0.38 28.46-1.44L28.46-1.44L28.46-1.44Q26.45-3.46 26.45-7.14L26.45-7.14L26.45-7.14Q26.45-12.88 29.56-16.38L29.56-16.38L29.56-16.38Q32.91-20.14 38.72-20.14L38.72-20.14L38.72-20.14Q42.33-20.14 44.12-18.62L44.12-18.62L44.12-18.62Q45.45-17.48 45.45-15.62L45.45-15.62L45.45-15.62Q45.45-8.93 33.90-8.93L33.90-8.93L33.90-8.93Q33.74-7.94 33.74-7.11L33.74-7.11L33.74-7.11Q33.74-5.36 34.52-4.69L34.52-4.69L34.52-4.69Q35.30-4.03 36.75-4.03L36.75-4.03L36.75-4.03Q38.19-4.03 39.73-4.69L39.73-4.69L39.73-4.69Q41.27-5.36 41.91-6.42ZM34.16-10.56L34.16-10.56L34.16-10.56Q36.86-10.56 38.42-12.24L38.42-12.24L38.42-12.24Q39.98-13.83 39.98-16.38L39.98-16.38L39.98-16.38Q39.98-17.25 39.65-17.73L39.65-17.73L39.65-17.73Q39.33-18.20 38.68-18.20L38.68-18.20L38.68-18.20Q38.04-18.20 37.49-17.95L37.49-17.95L37.49-17.95Q36.94-17.71 36.37-16.87L36.37-16.87L36.37-16.87Q34.96-14.97 34.16-10.56ZM48.39-1.14L48.39-1.14L48.39-1.14Q47.50-2.13 47.10-3.69L47.10-3.69L47.10-3.69Q46.70-5.24 46.70-7.79L46.70-7.79L46.70-7.79Q46.70-10.34 47.58-12.65L47.58-12.65L47.58-12.65Q48.45-14.97 50.05-16.64L50.05-16.64L50.05-16.64Q53.31-20.14 58.71-20.14L58.71-20.14L58.71-20.14Q60.65-20.14 62.05-19.49L62.05-19.49L68.55-20.14L65.74-5.32L65.74-5.32Q65.63-4.86 65.63-4.03L65.63-4.03L65.63-4.03Q65.63-3.19 66.14-2.66L66.14-2.66L66.14-2.66Q66.65-2.13 67.41-2.05L67.41-2.05L67.41-2.05Q67.03-0.76 65.64 0L65.64 0L65.64 0Q64.26 0.76 62.70 0.76L62.70 0.76L62.70 0.76Q61.14 0.76 60.10 0.17L60.10 0.17L60.10 0.17Q59.05-0.42 58.75-1.41L58.75-1.41L58.75-1.41Q58.14-0.46 56.85 0.15L56.85 0.15L56.85 0.15Q55.56 0.76 53.83 0.76L53.83 0.76L53.83 0.76Q52.10 0.76 50.69 0.30L50.69 0.30L50.69 0.30Q49.29-0.15 48.39-1.14ZM56.41-16.57L56.41-16.57L56.41-16.57Q55.97-15.88 55.59-14.72L55.59-14.72L55.59-14.72Q55.21-13.57 54.59-10.47L54.59-10.47L54.59-10.47Q53.96-7.37 53.96-5.17L53.96-5.17L53.96-5.17Q53.96-2.96 54.30-2.32L54.30-2.32L54.30-2.32Q54.64-1.67 55.25-1.67L55.25-1.67L55.25-1.67Q56.47-1.67 57.36-2.83L57.36-2.83L57.36-2.83Q58.25-3.99 58.60-6.04L58.60-6.04L60.61-17.18L60.61-17.18Q59.81-17.86 58.88-17.86L58.88-17.86L58.88-17.86Q57.95-17.86 57.40-17.56L57.40-17.56L57.40-17.56Q56.85-17.25 56.41-16.57ZM82.42-20.14L82.42-20.14L82.42-20.14Q83.79-20.14 84.85-19.84L84.85-19.84L84.85-19.84Q84.89-19.99 84.97-20.41L84.97-20.41L85.16-21.58L85.16-21.58Q85.31-22.34 85.54-23.60L85.54-23.60L86.15-26.60L93.71-27.36L89.49-5.32L89.49-5.32Q89.45-5.09 89.45-4.71L89.45-4.71L89.45-4.10L89.45-4.10Q89.45-3.27 89.87-2.64L89.87-2.64L89.87-2.64Q90.29-2.01 90.97-2.01L90.97-2.01L90.97-2.01Q90.21-0.23 87.89 0.53L87.89 0.53L87.89 0.53Q87.10 0.76 85.97 0.76L85.97 0.76L85.97 0.76Q84.85 0.76 83.83 0.17L83.83 0.17L83.83 0.17Q82.80-0.42 82.50-1.41L82.50-1.41L82.50-1.41Q81.89-0.42 80.67 0.17L80.67 0.17L80.67 0.17Q79.46 0.76 77.69 0.76L77.69 0.76L77.69 0.76Q75.92 0.76 74.46 0.30L74.46 0.30L74.46 0.30Q73.00-0.15 72.09-1.14L72.09-1.14L72.09-1.14Q70.41-3.08 70.41-7.49L70.41-7.49L70.41-7.49Q70.41-13.19 73.76-16.64L73.76-16.64L73.76-16.64Q77.10-20.14 82.42-20.14ZM82.16-17.86L82.16-17.86L82.16-17.86Q80.75-17.86 79.99-16.34L79.99-16.34L79.99-16.34Q79.23-14.82 78.45-11.06L78.45-11.06L78.45-11.06Q77.67-7.30 77.67-3.91L77.67-3.91L77.67-3.91Q77.67-1.60 79.04-1.60L79.04-1.60L79.04-1.60Q80.26-1.60 81.11-2.81L81.11-2.81L81.11-2.81Q81.97-4.03 82.31-6.04L82.31-6.04L84.36-17.18L84.36-17.18Q83.56-17.86 82.16-17.86ZM106.29-4.29L106.29-4.29L106.29-4.29Q104.31-2.24 100.70-2.24L100.70-2.24L100.70-2.24Q96.18-2.24 95.23-5.55L95.23-5.55L95.23-5.55Q94.92-6.54 94.92-7.64L94.92-7.64L94.92-7.64Q94.92-8.74 95.15-9.88L95.15-9.88L96.94-19.38L104.65-20.14L102.56-9.08L102.56-9.08Q102.49-8.59 102.37-8.06L102.37-8.06L102.37-8.06Q102.26-7.52 102.26-6.97L102.26-6.97L102.26-6.97Q102.26-6.42 102.45-6.06L102.45-6.06L102.45-6.06Q102.64-5.70 102.90-5.47L102.90-5.47L102.90-5.47Q103.36-5.17 104.18-5.17L104.18-5.17L104.18-5.17Q104.99-5.17 105.70-6.16L105.70-6.16L105.70-6.16Q106.40-7.14 106.74-8.85L106.74-8.85L108.83-19.38L116.32-20.14L113.47-5.21L113.47-5.21Q112.06 2.09 109.17 4.98L109.17 4.98L109.17 4.98Q107.69 6.46 105.77 7.05L105.77 7.05L105.77 7.05Q103.85 7.64 101.38 7.64L101.38 7.64L101.38 7.64Q97.39 7.64 95.11 6.38L95.11 6.38L95.11 6.38Q92.83 5.13 92.83 3.04L92.83 3.04L92.83 3.04Q92.83 1.48 94.01 0.59L94.01 0.59L94.01 0.59Q95.19-0.30 97.01-0.30L97.01-0.30L97.01-0.30Q98.61-0.30 99.83 0.38L99.83 0.38L99.83 0.38Q100.55 0.80 100.89 1.33L100.89 1.33L100.89 1.33Q100.02 2.09 100.02 3.34L100.02 3.34L100.02 3.34Q100.02 5.02 101.54 5.02L101.54 5.02L101.54 5.02Q104.04 5.02 105.49-0.76L105.49-0.76L105.49-0.76Q105.91-2.47 106.29-4.29ZM126.12-3.80L126.12-3.80L126.12-3.80Q126.12-4.83 126.65-7.41L126.65-7.41L128.67-17.67L126.43-17.67L126.58-18.81L126.58-18.81Q131.14-20.18 135.55-23.52L135.55-23.52L137.37-23.52L136.46-19.38L139.42-19.38L139.08-17.67L136.15-17.67L134.22-7.41L134.22-7.41Q133.72-5.05 133.72-4.26L133.72-4.26L133.72-4.26Q133.72-2.43 135.32-2.05L135.32-2.05L135.32-2.05Q134.94-0.76 133.57 0L133.57 0L133.57 0Q132.20 0.76 130.26 0.76L130.26 0.76L130.26 0.76Q128.33 0.76 127.22-0.46L127.22-0.46L127.22-0.46Q126.12-1.67 126.12-3.80ZM147.36 0.76L147.36 0.76L147.36 0.76Q139.00 0.76 139.00-7.11L139.00-7.11L139.00-7.11Q139.00-12.69 142.08-16.30L142.08-16.30L142.08-16.30Q145.35-20.14 151.01-20.14L151.01-20.14L151.01-20.14Q155.12-20.14 157.21-18.24L157.21-18.24L157.21-18.24Q159.30-16.34 159.30-12.35L159.30-12.35L159.30-12.35Q159.30-6.27 156.03-2.74L156.03-2.74L156.03-2.74Q152.84 0.76 147.36 0.76ZM148.35-15.77L148.35-15.77L148.35-15.77Q147.90-14.74 147.53-13.21L147.53-13.21L147.53-13.21Q147.17-11.67 146.72-9.23L146.72-9.23L146.72-9.23Q146.26-6.80 146.26-3.80L146.26-3.80L146.26-3.80Q146.26-2.81 146.59-2.17L146.59-2.17L146.59-2.17Q146.91-1.52 147.78-1.52L147.78-1.52L147.78-1.52Q148.66-1.52 149.21-1.94L149.21-1.94L149.21-1.94Q149.76-2.36 150.18-3.34L150.18-3.34L150.18-3.34Q150.94-5.09 151.54-8.34L151.54-8.34L151.54-8.34Q152.15-11.59 152.21-13.00L152.21-13.00L152.21-13.00Q152.27-14.40 152.27-15.45L152.27-15.45L152.27-15.45Q152.27-16.49 151.96-17.18L151.96-17.18L151.96-17.18Q151.66-17.86 150.80-17.86L150.80-17.86L150.80-17.86Q149.95-17.86 149.38-17.33L149.38-17.33L149.38-17.33Q148.81-16.80 148.35-15.77ZM168.99-0.19L168.99-0.19L173.77-25.08L173.77-25.08Q178.26-25.46 181.15-25.46L181.15-25.46L181.15-25.46Q184.03-25.46 185.90-25.21L185.90-25.21L185.90-25.21Q187.76-24.97 189.01-24.32L189.01-24.32L189.01-24.32Q191.52-23.10 191.52-19.76L191.52-19.76L191.52-19.76Q191.52-17.82 189.85-16.19L189.85-16.19L189.85-16.19Q188.29-14.71 186.58-14.36L186.58-14.36L186.58-14.36Q188.40-14.06 189.70-12.69L189.70-12.69L189.70-12.69Q191.06-11.25 191.06-9.01L191.06-9.01L191.06-9.01Q191.06-4.67 187.83-2.15L187.83-2.15L187.83-2.15Q184.60 0.38 178.26 0.38L178.26 0.38L178.26 0.38Q173.89 0.38 168.99-0.19ZM179.32-12.24L177.42-2.39L177.42-2.39Q177.76-2.36 177.84-2.36L177.84-2.36L178.18-2.36L178.18-2.36Q181.30-2.36 182.63-4.41L182.63-4.41L182.63-4.41Q183.62-6.00 183.62-8.93L183.62-8.93L183.62-8.93Q183.62-10.49 182.61-11.32L182.61-11.32L182.61-11.32Q181.60-12.16 179.32-12.24L179.32-12.24ZM185.10-19.72L185.10-19.72L185.10-19.72Q185.10-22.88 182.06-22.88L182.06-22.88L181.72-22.88L181.72-22.88Q181.56-22.88 181.34-22.84L181.34-22.84L179.82-14.82L180.20-14.82L180.20-14.82Q185.10-14.93 185.10-19.72ZM208.96-6.42L208.96-6.42L208.96-6.42Q209.91-5.78 209.91-4.35L209.91-4.35L209.91-4.35Q209.91-2.93 209.19-2.01L209.19-2.01L209.19-2.01Q208.47-1.10 207.29-0.49L207.29-0.49L207.29-0.49Q204.86 0.76 202.24 0.76L202.24 0.76L202.24 0.76Q199.61 0.76 198.07 0.19L198.07 0.19L198.07 0.19Q196.54-0.38 195.51-1.44L195.51-1.44L195.51-1.44Q193.50-3.46 193.50-7.14L193.50-7.14L193.50-7.14Q193.50-12.88 196.61-16.38L196.61-16.38L196.61-16.38Q199.96-20.14 205.77-20.14L205.77-20.14L205.77-20.14Q209.38-20.14 211.17-18.62L211.17-18.62L211.17-18.62Q212.50-17.48 212.50-15.62L212.50-15.62L212.50-15.62Q212.50-8.93 200.94-8.93L200.94-8.93L200.94-8.93Q200.79-7.94 200.79-7.11L200.79-7.11L200.79-7.11Q200.79-5.36 201.57-4.69L201.57-4.69L201.57-4.69Q202.35-4.03 203.79-4.03L203.79-4.03L203.79-4.03Q205.24-4.03 206.78-4.69L206.78-4.69L206.78-4.69Q208.32-5.36 208.96-6.42ZM201.21-10.56L201.21-10.56L201.21-10.56Q203.91-10.56 205.47-12.24L205.47-12.24L205.47-12.24Q207.02-13.83 207.02-16.38L207.02-16.38L207.02-16.38Q207.02-17.25 206.70-17.73L206.70-17.73L206.70-17.73Q206.38-18.20 205.73-18.20L205.73-18.20L205.73-18.20Q205.09-18.20 204.53-17.95L204.53-17.95L204.53-17.95Q203.98-17.71 203.41-16.87L203.41-16.87L203.41-16.87Q202.01-14.97 201.21-10.56ZM216.49-15.88L216.49-15.88L216.49-15.88Q217.78-17.71 219.73-18.92L219.73-18.92L219.73-18.92Q221.69-20.14 224.09-20.14L224.09-20.14L224.09-20.14Q226.48-20.14 227.62-19.38L227.62-19.38L235.07-20.14L232.48-5.55L232.48-5.55Q231.15 1.90 228.34 4.83L228.34 4.83L228.34 4.83Q225.64 7.60 220.40 7.60L220.40 7.60L220.40 7.60Q216.41 7.60 214.13 6.35L214.13 6.35L214.13 6.35Q211.85 5.09 211.85 3.00L211.85 3.00L211.85 3.00Q211.85 1.44 213.03 0.55L213.03 0.55L213.03 0.55Q214.21-0.34 216.03-0.34L216.03-0.34L216.03-0.34Q217.63-0.34 218.84 0.38L218.84 0.38L218.84 0.38Q219.56 0.76 219.91 1.29L219.91 1.29L219.91 1.29Q219.03 2.05 219.03 3.31L219.03 3.31L219.03 3.31Q219.03 4.94 220.55 4.94L220.55 4.94L220.55 4.94Q223.10 4.94 224.54-1.06L224.54-1.06L224.54-1.06Q224.96-2.70 225.30-4.33L225.30-4.33L225.30-4.33Q223.59-2.24 219.72-2.24L219.72-2.24L219.72-2.24Q217.02-2.24 215.46-3.53L215.46-3.53L215.46-3.53Q213.90-4.83 213.90-7.87L213.90-7.87L213.90-7.87Q213.90-9.77 214.55-11.91L214.55-11.91L214.55-11.91Q215.19-14.06 216.49-15.88ZM221.43-7.75L221.43-7.75L221.43-7.75Q221.43-5.17 222.76-5.17L222.76-5.17L222.76-5.17Q223.67-5.17 224.54-6.16L224.54-6.16L224.54-6.16Q225.23-6.95 225.49-8.13L225.49-8.13L227.43-17.90L227.43-17.90Q227.24-17.94 227.05-18.01L227.05-18.01L227.05-18.01Q226.67-18.16 226.18-18.16L226.18-18.16L226.18-18.16Q223.86-18.16 222.49-14.36L222.49-14.36L222.49-14.36Q221.43-11.40 221.43-7.75ZM245.67-2.09L245.67-2.09L245.67-2.09Q244.49 0.76 240.73 0.76L240.73 0.76L240.73 0.76Q238.79 0.76 237.58-0.57L237.58-0.57L237.58-0.57Q236.55-1.75 236.55-2.93L236.55-2.93L236.55-2.93Q236.55-6.00 237.96-12.01L237.96-12.01L239.36-19.38L247.08-20.14L244.76-8.13L244.76-8.13Q244.11-5.32 244.11-4.33L244.11-4.33L244.11-4.33Q244.11-2.17 245.67-2.09ZM240.05-24.66L240.05-24.66L240.05-24.66Q240.05-26.14 241.28-26.94L241.28-26.94L241.28-26.94Q242.52-27.74 244.30-27.74L244.30-27.74L244.30-27.74Q246.09-27.74 247.17-26.94L247.17-26.94L247.17-26.94Q248.25-26.14 248.25-24.66L248.25-24.66L248.25-24.66Q248.25-23.18 247.06-22.42L247.06-22.42L247.06-22.42Q245.86-21.66 244.07-21.66L244.07-21.66L244.07-21.66Q242.29-21.66 241.17-22.42L241.17-22.42L241.17-22.42Q240.05-23.18 240.05-24.66ZM264.97 0.76L264.97 0.76L264.97 0.76Q260.38 0.76 260.38-2.81L260.38-2.81L260.38-2.81Q260.41-3.80 260.72-5.47L260.72-5.47L261.40-8.97L261.40-8.97Q262.43-13.91 262.43-15.01L262.43-15.01L262.43-15.01Q262.43-17.21 261.14-17.21L261.14-17.21L261.14-17.21Q258.97-17.21 257.83-11.55L257.83-11.55L255.59 0L247.95 0.76L251.90-19.42L258.13-20.14L257.53-16.42L257.53-16.42Q259.31-20.14 264.78-20.14L264.78-20.14L264.78-20.14Q267.44-20.14 268.56-19.02L268.56-19.02L268.56-19.02Q269.69-17.90 269.69-15.39L269.69-15.39L269.69-15.39Q269.69-13.03 268.47-7.52L268.47-7.52L268.47-7.52Q267.90-5.05 267.90-4.12L267.90-4.12L267.90-4.12Q267.90-3.19 268.41-2.66L268.41-2.66L268.41-2.66Q268.93-2.13 269.69-2.05L269.69-2.05L269.69-2.05Q269.31-0.76 268.00 0L268.00 0L268.00 0Q266.68 0.76 264.97 0.76ZM273.68-2.24L273.68-2.24L273.68-2.24Q273.68-3.69 274.80-4.48L274.80-4.48L274.80-4.48Q275.92-5.28 277.51-5.28L277.51-5.28L277.51-5.28Q279.11-5.28 280.08-4.48L280.08-4.48L280.08-4.48Q281.05-3.69 281.05-2.24L281.05-2.24L281.05-2.24Q281.05-0.80 279.96-0.02L279.96-0.02L279.96-0.02Q278.88 0.76 277.29 0.76L277.29 0.76L277.29 0.76Q275.69 0.76 274.68-0.02L274.68-0.02L274.68-0.02Q273.68-0.80 273.68-2.24ZM281.35-18.20L281.35-18.20L281.35-18.20Q280.52-17.97 278.84-17.97L278.84-17.97L278.84-17.97Q277.17-17.97 275.96-18.66L275.96-18.66L275.96-18.66Q274.74-19.34 274.74-20.54L274.74-20.54L274.74-20.54Q274.74-21.74 275.33-22.69L275.33-22.69L275.33-22.69Q275.92-23.64 277.17-24.32L277.17-24.32L277.17-24.32Q279.79-25.84 284.32-25.84L284.32-25.84L284.32-25.84Q288.84-25.84 290.62-24.59L290.62-24.59L290.62-24.59Q292.41-23.33 292.41-21.20L292.41-21.20L292.41-21.20Q292.41-17.97 289.18-15.47L289.18-15.47L289.18-15.47Q288.23-14.71 287.05-13.95L287.05-13.95L279.79-9.23L279.79-9.23Q278.31-8.25 278.31-6.80L278.31-6.80L278.31-6.80Q277.21-6.80 276.49-7.75L276.49-7.75L276.49-7.75Q275.77-8.70 275.77-10.03L275.77-10.03L275.77-10.03Q275.77-13.07 278.65-14.86L278.65-14.86L282.95-17.52L282.95-17.52Q284.73-18.58 285.68-20.44L285.68-20.44L285.68-20.44Q285.99-21.05 285.99-21.81L285.99-21.81L285.99-21.81Q285.99-23.56 284.24-23.56L284.24-23.56L284.24-23.56Q282.87-23.56 281.92-22.46L281.92-22.46L281.92-22.46Q281.09-21.47 281.05-20.18L281.05-20.18L281.05-20.18Q281.01-18.89 281.35-18.20Z" fill="#eb6c6c"></path></g></g><style>text {
  font-size: 64px;
  font-family: Arial Black;
  dominant-baseline: central;
  text-anchor: middle;
}</style></svg>